<?xml version="1.0" standalone="no"?>
<!DOCTYPE svg PUBLIC "-//W3C//DTD SVG 20010904//EN"
 "http://www.w3.org/TR/2001/REC-SVG-20010904/DTD/svg10.dtd">
<svg version="1.0" xmlns="http://www.w3.org/2000/svg"
 width="1280.000000pt" height="1271.000000pt" viewBox="0 0 1280.000000 1271.000000"
 preserveAspectRatio="xMidYMid meet">
<metadata>
Created by potrace 1.15, written by Peter Selinger 2001-2017
</metadata>
<g transform="translate(0.000000,1271.000000) scale(0.100000,-0.100000)"
fill="#000000" stroke="none">
<path d="M5968 12688 c-8 -14 -13 -60 -13 -118 0 -102 12 -140 45 -140 32 0
44 38 44 140 0 102 -12 140 -44 140 -11 0 -25 -10 -32 -22z"/>
<path d="M6593 12695 c-52 -22 -90 -99 -79 -160 9 -44 57 -92 100 -101 53 -9
130 38 162 98 56 107 -64 215 -183 163z"/>
<path d="M7314 12672 c-19 -12 -31 -43 -54 -143 -25 -105 -23 -129 13 -129 37
0 46 19 63 131 19 125 13 164 -22 141z"/>
<path d="M5309 12593 c-6 -16 -9 -63 -6 -109 7 -129 51 -185 83 -107 25 58 1
213 -36 233 -27 14 -29 13 -41 -17z"/>
<path d="M7951 12524 c-54 -69 -81 -223 -42 -243 13 -7 23 -7 34 2 28 21 53
150 48 250 -1 24 -16 21 -40 -9z"/>
<path d="M4654 12445 c-24 -61 51 -265 96 -265 32 0 16 154 -23 232 -24 46
-62 63 -73 33z"/>
<path d="M8595 12344 c-42 -46 -89 -151 -89 -203 -1 -43 1 -46 26 -49 35 -4
59 32 94 144 37 118 23 166 -31 108z"/>
<path d="M4037 12243 c-11 -11 -8 -65 7 -114 29 -96 69 -146 105 -134 28 8 27
21 -9 113 -47 121 -78 161 -103 135z"/>
<path d="M9204 12067 c-48 -54 -95 -134 -97 -164 -2 -24 2 -28 25 -31 21 -3
32 5 55 40 37 54 63 120 63 158 0 38 -11 38 -46 -3z"/>
<path d="M5960 12069 c-164 -21 -233 -43 -162 -51 47 -5 84 -93 276 -652 l65
-188 -96 -257 c-79 -211 -124 -324 -200 -498 -7 -18 98 -17 142 1 30 13 36 22
50 73 39 141 146 377 169 371 29 -9 137 -284 152 -388 4 -25 11 -50 16 -56 12
-16 112 -25 179 -16 l56 7 -119 323 c-65 178 -125 360 -134 406 -15 76 -15 89
0 162 27 133 189 537 254 634 61 91 129 105 153 33 16 -48 6 -724 -16 -1083
-8 -135 -15 -293 -15 -352 0 -97 2 -109 23 -132 17 -20 35 -27 78 -32 99 -11
102 -1 114 311 9 229 43 770 61 955 18 194 37 289 66 326 18 22 27 25 55 21
54 -9 63 -22 63 -92 0 -109 -91 -860 -150 -1236 -33 -208 -37 -271 -17 -287
10 -8 132 -32 166 -32 32 0 48 83 126 685 100 762 117 852 176 919 28 32 29
36 12 44 -10 6 -49 15 -88 20 -116 18 -629 43 -805 40 l-164 -3 -12 -76 c-20
-130 -137 -445 -170 -456 -40 -13 -149 372 -142 502 l3 60 -50 1 c-27 1 -79
-2 -115 -7z"/>
<path d="M3445 11970 c-87 -35 -100 -162 -26 -240 47 -50 81 -52 140 -10 78
57 101 131 61 197 -33 54 -113 79 -175 53z"/>
<path d="M9710 11793 c-30 -11 -60 -47 -66 -79 -10 -53 63 -184 102 -184 21 0
74 28 101 53 47 43 34 151 -24 197 -25 19 -79 25 -113 13z"/>
<path d="M4246 11650 c-104 -44 -331 -159 -423 -215 l-83 -49 20 -21 c23 -25
36 -63 50 -151 18 -109 41 -354 35 -364 -10 -16 -83 40 -199 150 -126 122
-177 187 -169 218 4 18 1 22 -16 22 -41 0 -291 -137 -291 -160 0 -5 11 -12 25
-16 58 -14 266 -170 480 -360 163 -143 229 -215 242 -259 38 -129 99 -625 89
-717 -5 -40 -4 -58 4 -58 14 0 138 80 162 104 16 16 16 20 3 46 -29 55 -84
330 -85 418 0 46 24 42 101 -19 139 -111 249 -235 249 -282 0 -32 5 -33 61 -7
24 11 52 20 61 20 41 0 43 -23 49 -585 4 -329 11 -567 18 -610 15 -89 44 -148
98 -203 24 -23 43 -50 43 -60 0 -9 27 -53 61 -97 125 -165 355 -513 827 -1249
l230 -359 -48 -96 c-26 -53 -54 -114 -60 -136 -7 -22 -15 -131 -19 -244 l-6
-205 -195 -159 c-107 -87 -339 -274 -515 -415 -353 -282 -395 -318 -395 -343
0 -20 121 -161 241 -279 172 -172 432 -359 541 -391 24 -7 32 -3 63 34 46 53
114 169 264 444 171 317 331 593 413 716 33 48 43 57 69 57 33 0 79 -20 98
-44 7 -8 19 -46 27 -83 8 -37 43 -176 79 -308 74 -270 170 -657 210 -845 15
-69 29 -128 31 -132 5 -9 163 27 258 58 239 80 632 282 695 358 25 29 -12 91
-237 401 -120 165 -300 414 -400 553 l-182 253 35 69 c102 202 115 333 53 548
-11 39 -10 47 11 86 12 24 212 246 444 493 232 247 766 817 1187 1268 l765
820 218 405 c681 1262 857 1606 857 1680 0 30 -28 80 -44 80 -29 0 -166 -191
-166 -231 0 -18 -184 -200 -410 -405 -362 -328 -860 -757 -910 -784 l-21 -11
21 42 c64 125 545 881 633 996 29 37 65 74 80 81 15 7 27 17 27 22 0 16 -75
70 -153 111 -43 22 -80 39 -82 37 -2 -1 -21 -37 -43 -79 -91 -173 -552 -926
-733 -1196 -49 -73 -90 -141 -92 -152 -1 -12 11 -28 33 -43 19 -13 36 -33 38
-45 2 -14 -31 -72 -94 -165 -98 -145 -1555 -2099 -1731 -2322 -233 -294 -286
-336 -373 -291 -42 22 -64 85 -320 930 -67 220 -143 472 -170 560 -27 88 -79
259 -115 380 -79 262 -116 359 -154 411 -15 22 -90 88 -167 148 -255 201 -677
563 -695 598 -13 25 -2 34 111 89 80 38 130 73 130 90 0 4 -13 12 -29 17 -22
8 -32 21 -45 62 -10 29 -107 249 -217 488 -285 619 -362 809 -356 877 3 40
-14 41 -97 5z m-163 -174 c68 -28 111 -100 304 -511 217 -460 357 -774 367
-820 23 -112 -117 -43 -374 182 -74 65 -167 150 -206 189 -137 136 -157 191
-203 554 -40 320 -38 368 17 402 33 21 53 22 95 4z m2287 -5002 c25 -23 40
-45 40 -60 0 -23 -63 -94 -83 -94 -16 0 -87 77 -87 95 0 16 70 95 84 95 3 0
24 -16 46 -36z"/>
<path d="M2850 11605 c0 -27 29 -88 72 -151 60 -89 98 -106 98 -45 0 47 -127
211 -164 211 -3 0 -6 -7 -6 -15z"/>
<path d="M2310 11200 c0 -19 32 -73 77 -132 47 -61 84 -81 108 -57 20 20 -6
70 -75 142 -41 42 -63 57 -83 57 -15 0 -27 -5 -27 -10z"/>
<path d="M10832 10983 c-37 -18 -125 -110 -148 -155 -18 -36 -12 -58 16 -58
23 0 174 140 196 182 13 25 12 28 -5 38 -24 12 -19 13 -59 -7z"/>
<path d="M1817 10773 c-39 -38 125 -240 178 -219 42 16 -7 101 -106 183 -52
44 -61 48 -72 36z"/>
<path d="M11259 10499 c-67 -47 -159 -141 -159 -162 0 -48 91 -21 171 51 58
52 82 97 68 124 -14 25 -30 23 -80 -13z"/>
<path d="M1374 10265 c-12 -31 98 -155 171 -193 25 -13 55 2 55 26 0 32 -171
182 -207 182 -7 0 -16 -7 -19 -15z"/>
<path d="M11650 9970 c-84 -47 -179 -114 -180 -127 0 -7 10 -24 23 -39 l23
-27 53 26 c80 41 137 83 160 121 25 40 27 62 5 70 -23 9 -24 8 -84 -24z"/>
<path d="M1053 9761 c-71 -44 -102 -134 -69 -200 19 -36 82 -91 104 -91 38 0
135 81 153 128 13 34 -18 98 -69 145 -47 42 -73 46 -119 18z"/>
<path d="M1765 9706 c-52 -54 -105 -130 -105 -150 0 -8 19 -24 43 -34 48 -22
132 -107 228 -232 126 -163 121 -179 -49 -144 -251 50 -352 87 -352 129 0 40
-17 38 -53 -7 -60 -74 -196 -313 -184 -324 2 -2 30 8 62 22 51 23 65 26 124
20 135 -14 542 -106 709 -162 78 -25 85 -31 169 -118 161 -166 353 -423 353
-470 0 -13 7 -29 15 -36 12 -10 20 -6 45 21 42 46 95 152 87 172 -3 9 -15 17
-25 17 -40 0 -272 274 -272 322 0 23 33 24 138 2 116 -23 232 -62 275 -91 37
-26 38 -26 58 -7 26 24 139 195 139 211 0 13 -19 17 -275 63 -216 39 -441 94
-510 125 -71 31 -125 82 -269 255 -215 258 -301 386 -290 432 8 41 -12 35 -61
-16z"/>
<path d="M11914 9470 c-66 -37 -98 -87 -98 -151 0 -57 23 -96 69 -115 45 -19
71 -17 122 6 78 35 103 113 62 197 -21 43 -71 93 -92 93 -7 0 -35 -13 -63 -30z"/>
<path d="M11268 9361 c-54 -58 -84 -76 -594 -369 -744 -427 -825 -475 -819
-491 14 -36 98 -151 114 -156 13 -4 40 9 83 38 214 149 1050 623 1230 698 66
28 80 30 146 25 l73 -6 -12 23 c-46 89 -163 277 -172 277 -7 0 -28 -18 -49
-39z"/>
<path d="M657 9136 c-11 -27 30 -72 99 -108 96 -50 127 -55 155 -27 l22 22
-31 26 c-29 24 -203 101 -228 101 -7 0 -14 -6 -17 -14z"/>
<path d="M11465 9020 c-46 -72 -212 -167 -945 -538 -267 -135 -489 -248 -493
-252 -9 -8 40 -113 75 -163 l20 -28 401 204 c685 347 1046 517 1101 519 27 1
28 3 23 38 -10 73 -116 260 -147 260 -5 0 -21 -18 -35 -40z"/>
<path d="M12238 8790 c-55 -22 -118 -60 -136 -82 -7 -9 -9 -23 -6 -33 5 -13
14 -15 42 -10 83 15 232 100 232 131 0 21 -74 17 -132 -6z"/>
<path d="M395 8510 c-10 -16 33 -50 118 -91 94 -46 130 -48 135 -7 3 22 -4 31
-40 51 -76 44 -198 71 -213 47z"/>
<path d="M12417 8171 c-78 -20 -118 -51 -101 -79 17 -27 68 -26 153 3 77 25
129 63 116 84 -9 16 -91 12 -168 -8z"/>
<path d="M215 7870 c-9 -15 81 -68 140 -81 57 -13 110 -3 110 21 0 19 -46 50
-91 60 -52 13 -151 12 -159 0z"/>
<path d="M12553 7516 c-53 -13 -103 -40 -103 -55 0 -18 35 -21 114 -10 94 12
148 34 144 58 -4 21 -83 25 -155 7z"/>
<path d="M84 7205 c-19 -15 -19 -15 0 -30 24 -18 91 -29 181 -30 67 0 70 1 73
24 6 41 -21 51 -133 51 -75 0 -106 -4 -121 -15z"/>
<path d="M692 7150 c-18 -58 -32 -150 -32 -218 0 -62 1 -64 23 -56 64 22 109
11 265 -65 83 -41 163 -84 178 -96 53 -42 18 -66 -174 -116 -167 -43 -213 -46
-256 -20 l-35 22 -13 -23 c-8 -15 -14 -86 -18 -204 -6 -187 1 -538 11 -548 3
-3 23 3 45 14 86 43 337 64 979 80 454 12 623 23 644 45 11 11 12 48 3 220 -5
114 -14 211 -18 215 -5 5 -66 31 -137 59 -183 73 -322 140 -311 150 24 21 329
111 379 111 11 0 36 5 57 10 46 13 57 42 65 173 7 108 6 109 -55 78 -59 -30
-236 -83 -539 -160 l-282 -73 -233 102 c-439 192 -509 232 -525 297 l-9 38
-12 -35z m1109 -705 c284 -116 406 -175 444 -215 41 -43 27 -63 -51 -72 -100
-11 -541 -27 -904 -34 -537 -9 -641 9 -616 111 4 17 24 31 78 53 129 54 744
249 789 251 14 1 131 -42 260 -94z"/>
<path d="M12612 6865 c-61 -14 -75 -25 -70 -51 2 -14 14 -20 43 -22 51 -4 159
24 180 48 16 17 15 19 -4 29 -25 14 -82 13 -149 -4z"/>
<path d="M12109 6760 c-59 -35 -360 -52 -1029 -59 l-605 -6 -3 -100 c-3 -127
4 -141 64 -120 138 47 1522 42 1580 -6 28 -23 34 3 34 136 0 163 -4 177 -41
155z"/>
<path d="M110 6684 c-65 -22 -100 -74 -100 -146 0 -75 50 -118 135 -118 173 0
181 232 10 263 -16 3 -37 3 -45 1z"/>
<path d="M10470 6238 l0 -105 458 -6 c682 -10 1103 -31 1156 -59 28 -15 36
-28 36 -63 0 -57 -23 -69 -145 -79 -68 -6 -550 13 -755 29 -36 3 -164 12 -285
21 -121 8 -266 22 -321 30 -124 18 -148 11 -163 -43 -12 -44 -14 -133 -3 -148
4 -6 65 -11 137 -12 311 -6 1373 -102 1472 -134 40 -13 51 -7 70 38 18 44 37
362 29 495 -7 121 -16 143 -59 134 -41 -9 -1333 -8 -1499 0 l-128 7 0 -105z"/>
<path d="M12600 6298 c-65 -44 -72 -140 -14 -193 49 -45 139 -38 187 15 30 34
35 73 13 123 -20 48 -50 69 -103 74 -39 4 -55 0 -83 -19z"/>
<path d="M57 5911 c-98 -20 -51 -53 78 -54 106 -2 137 7 133 36 -3 21 -8 22
-88 24 -47 0 -102 -2 -123 -6z"/>
<path d="M12504 5570 c-57 -23 -29 -50 60 -57 79 -7 159 4 153 20 -10 30 -164
57 -213 37z"/>
<path d="M160 5279 c-130 -36 -127 -79 6 -79 109 0 194 39 164 75 -14 17 -112
19 -170 4z"/>
<path d="M2412 5044 c-102 -71 -1359 -534 -1450 -534 -62 0 -64 -4 -35 -83 79
-219 510 -1106 533 -1095 141 71 206 98 356 152 177 63 412 136 440 136 8 0
14 -6 14 -12 0 -19 -499 -509 -548 -538 -23 -14 -42 -32 -42 -40 0 -24 71
-138 117 -187 43 -47 66 -52 71 -16 5 35 155 204 642 724 357 382 416 449 397
449 -27 0 -229 -64 -795 -251 -579 -191 -691 -224 -705 -210 -14 14 173 124
767 450 286 158 493 276 574 327 l52 34 -26 51 c-14 29 -84 178 -155 333 -115
248 -157 326 -179 326 -3 0 -16 -7 -28 -16z m108 -254 c-18 -33 -72 -67 -190
-120 -503 -226 -1164 -500 -1205 -500 -24 0 -55 38 -55 66 0 22 10 30 83 63
151 70 915 374 1197 476 107 39 149 51 162 44 14 -8 16 -14 8 -29z m120 -265
c33 -40 -33 -79 -800 -477 -498 -259 -535 -273 -585 -223 -29 28 -32 66 -8 91
43 44 1062 519 1283 600 77 28 93 29 110 9z"/>
<path d="M12344 4928 c-11 -18 31 -45 87 -57 69 -15 104 -14 119 5 20 23 -4
39 -81 52 -84 15 -116 15 -125 0z"/>
<path d="M10124 4727 c-29 -33 -91 -153 -83 -161 2 -2 139 -71 304 -154 298
-150 753 -393 935 -500 138 -80 196 -146 176 -197 -8 -22 -56 -37 -93 -30 -18
3 -97 38 -175 78 -191 97 -979 559 -1141 669 -55 37 -60 39 -76 24 -19 -17
-76 -126 -85 -161 -4 -17 10 -27 82 -62 140 -68 855 -497 1087 -653 144 -96
185 -135 185 -171 0 -16 -9 -38 -21 -50 -28 -28 -70 -21 -168 29 -138 70
-1018 645 -1151 752 -34 27 -68 46 -75 44 -11 -5 -125 -167 -125 -179 0 -2 17
-13 38 -24 92 -47 919 -593 1107 -730 120 -88 152 -117 171 -153 13 -25 13
-32 -1 -58 -27 -53 -45 -54 -121 -8 -233 138 -984 659 -1184 820 -33 26 -64
48 -69 48 -14 0 -76 -73 -106 -124 -29 -49 -28 -76 3 -76 42 0 724 -485 1062
-756 140 -111 186 -159 195 -201 12 -58 37 -40 132 92 242 336 723 1141 723
1210 0 19 -20 19 -46 0 -51 -39 -112 -16 -513 197 -565 299 -901 489 -901 509
0 21 -40 7 -66 -24z"/>
<path d="M370 4654 c-25 -8 -67 -26 -94 -42 -90 -50 -66 -72 46 -41 101 27
127 39 139 61 21 39 -12 48 -91 22z"/>
<path d="M12167 4319 c-21 -13 -10 -32 32 -54 38 -19 191 -58 199 -51 14 14
-16 42 -78 73 -74 37 -127 48 -153 32z"/>
<path d="M588 4046 c-90 -37 -148 -75 -148 -96 0 -29 12 -31 88 -11 108 28
171 75 156 115 -8 22 -29 20 -96 -8z"/>
<path d="M11910 3712 c0 -22 27 -39 114 -68 96 -33 109 -30 61 12 -76 67 -175
99 -175 56z"/>
<path d="M795 3525 c-49 -17 -105 -78 -105 -115 0 -31 58 -103 101 -125 64
-34 140 -4 160 64 22 74 -11 149 -77 177 -19 8 -35 14 -36 14 -2 -1 -21 -7
-43 -15z"/>
<path d="M11620 3171 c-51 -51 -36 -135 34 -193 36 -30 46 -22 46 31 0 44 5
54 47 101 60 67 53 84 -36 88 -57 3 -64 1 -91 -27z"/>
<path d="M3649 3109 c-26 -28 -170 -218 -320 -422 -292 -395 -485 -648 -556
-727 -23 -26 -43 -54 -43 -61 1 -39 154 -159 203 -159 8 0 33 33 57 73 64 107
410 601 612 873 178 241 258 356 258 370 0 18 -118 104 -144 104 -11 0 -41
-23 -67 -51z"/>
<path d="M3749 2768 c-270 -403 -608 -897 -681 -996 -38 -52 -67 -100 -65
-106 5 -13 215 -141 221 -135 1 2 17 34 34 71 52 114 401 649 683 1050 132
187 152 220 147 251 -3 23 -128 107 -160 107 -11 0 -71 -81 -179 -242z"/>
<path d="M1190 2891 c-57 -37 -126 -108 -116 -118 9 -10 146 60 181 93 55 51
4 71 -65 25z"/>
<path d="M8335 2698 c4 -24 85 -355 181 -736 95 -381 176 -721 180 -756 9 -89
13 -94 66 -71 63 28 118 64 118 77 0 6 -8 21 -19 32 -34 38 -167 500 -211 731
-6 33 -13 70 -16 83 -2 12 0 22 6 22 16 0 142 -124 264 -259 249 -275 310
-362 300 -418 -4 -18 -3 -33 1 -33 34 0 325 183 325 204 0 4 -17 3 -39 0 -49
-8 -69 3 -150 80 -86 83 -414 442 -652 716 -199 229 -333 370 -351 370 -6 0
-7 -17 -3 -42z"/>
<path d="M11236 2633 c-22 -23 25 -84 91 -117 39 -20 43 -20 43 -1 0 34 -116
136 -134 118z"/>
<path d="M4298 2537 c-86 -82 -454 -464 -840 -873 -75 -80 -140 -154 -143
-165 -9 -26 15 -52 72 -80 45 -22 73 -20 73 5 0 8 26 48 58 88 118 146 471
532 506 550 17 9 18 7 11 -28 -4 -22 -51 -193 -104 -381 -92 -321 -100 -345
-135 -383 -34 -38 -36 -43 -24 -62 20 -30 157 -107 201 -115 l37 -6 0 41 c0
23 9 81 20 129 56 238 244 909 329 1174 49 150 60 199 44 199 -5 0 -52 -42
-105 -93z"/>
<path d="M1566 2368 c-87 -57 -124 -159 -43 -116 64 33 147 113 147 141 0 18
-61 4 -104 -25z"/>
<path d="M5852 2313 c-12 -2 -27 -13 -32 -24 -6 -10 -22 -123 -35 -251 -49
-456 -135 -1128 -162 -1258 -23 -115 -24 -112 23 -126 92 -27 388 -44 453 -25
20 5 24 14 28 56 12 145 179 805 203 805 29 0 164 -552 185 -753 6 -57 5 -71
-10 -87 -10 -11 -15 -23 -11 -27 19 -19 283 -10 303 11 3 2 -4 17 -15 33 -36
50 -102 295 -232 858 -79 343 -148 624 -159 643 -4 8 -11 11 -13 6 -17 -28
-84 -273 -188 -683 -114 -452 -160 -620 -201 -747 -16 -50 -26 -65 -51 -77
-71 -34 -84 -1 -74 186 12 204 90 1013 125 1292 10 77 16 145 14 152 -8 20
-84 29 -151 16z"/>
<path d="M10795 2130 c-14 -22 173 -185 191 -167 9 9 -62 91 -114 134 -55 45
-67 50 -77 33z"/>
<path d="M2039 1912 c-49 -32 -139 -127 -139 -147 0 -42 54 -19 121 52 53 55
79 92 79 110 0 19 -11 16 -61 -15z"/>
<path d="M10330 1666 c0 -22 40 -66 61 -66 27 0 24 17 -10 51 -32 31 -51 37
-51 15z"/>
<path d="M2487 1470 c-71 -79 -107 -170 -67 -170 20 0 117 100 140 144 46 86
-4 103 -73 26z"/>
<path d="M9790 1281 c0 -11 25 -46 56 -78 43 -46 54 -53 48 -33 -14 55 -59
125 -81 128 -17 3 -23 -2 -23 -17z"/>
<path d="M2990 1139 c-55 -16 -92 -57 -88 -98 3 -31 5 -34 42 -36 48 -3 98
-50 89 -85 -5 -19 -3 -20 23 -14 16 4 44 13 62 20 29 12 32 17 32 54 0 58 -19
126 -40 145 -23 21 -76 27 -120 14z"/>
<path d="M9275 970 c-32 -13 -62 -52 -74 -97 -18 -68 7 -109 73 -120 33 -5 36
-4 34 18 -3 23 4 27 84 44 55 11 43 84 -22 139 -32 26 -59 31 -95 16z"/>
<path d="M3637 825 c-41 -40 -94 -163 -83 -191 6 -16 8 -16 25 0 26 23 91 149
91 174 0 28 -15 36 -33 17z"/>
<path d="M8657 694 c-11 -11 -8 -49 5 -62 21 -21 29 -13 26 25 -3 35 -17 51
-31 37z"/>
<path d="M4227 572 c-45 -50 -100 -232 -69 -232 19 0 93 137 106 196 9 41 -13
62 -37 36z"/>
<path d="M8057 453 c-14 -13 -7 -50 12 -67 18 -17 20 -16 26 4 14 43 -14 88
-38 63z"/>
<path d="M4840 380 c-11 -20 -44 -220 -37 -226 8 -8 70 159 75 201 4 37 2 45
-11 45 -9 0 -21 -9 -27 -20z"/>
<path d="M7427 313 c-11 -10 -8 -71 3 -78 6 -4 10 12 10 39 0 47 -2 51 -13 39z"/>
<path d="M5469 263 c-11 -29 -15 -150 -6 -159 15 -15 42 55 45 118 4 58 2 68
-12 68 -9 0 -21 -12 -27 -27z"/>
<path d="M6093 218 c-40 -28 -66 -75 -62 -108 3 -20 11 -26 38 -28 23 -2 35
-9 38 -23 7 -25 20 -24 59 6 l34 26 -6 -46 c-7 -50 3 -58 35 -26 44 44 39 142
-10 191 -37 37 -81 40 -126 8z"/>
<path d="M6769 198 c-12 -46 -2 -119 17 -125 23 -8 46 85 33 132 -13 48 -36
44 -50 -7z"/>
</g>
</svg>
